<?xml version="1.0" encoding="UTF-8" standalone="no"?>
<!DOCTYPE svg PUBLIC "-//W3C//DTD SVG 1.1//EN" "http://www.w3.org/Graphics/SVG/1.1/DTD/svg11.dtd">
<svg width="100%" height="100%" viewBox="0 0 500 500" version="1.1" xmlns="http://www.w3.org/2000/svg" xmlns:xlink="http://www.w3.org/1999/xlink" xml:space="preserve" xmlns:serif="http://www.serif.com/" style="fill-rule:evenodd;clip-rule:evenodd;stroke-linejoin:round;stroke-miterlimit:2;">
    <rect id="Artboard1" x="0" y="0" width="500" height="500" style="fill:none;"/>
    <g id="Artboard11" serif:id="Artboard1">
        <path d="M4.158,250C4.158,115.135 115.135,4.158 250,4.158C384.865,4.158 495.842,115.135 495.842,250C495.842,384.865 384.865,495.842 250,495.842C115.135,495.842 4.158,384.865 4.158,250ZM162.265,372.921C166.506,384.783 171.331,395.784 176.647,405.741C193.61,437.547 214.076,456.446 234.635,462.745L234.635,372.921L162.265,372.921ZM265.365,372.921L265.365,462.745C285.954,456.476 306.39,437.547 323.353,405.741C328.669,395.784 333.494,384.783 337.735,372.921L265.365,372.921ZM167.858,448.886C160.961,439.852 154.825,430.262 149.512,420.215C141.549,405.073 134.967,389.244 129.845,372.921L73.455,372.921C97.021,406.733 129.787,433.099 167.858,448.886ZM332.142,448.886C370.213,433.099 402.979,406.733 426.545,372.921L370.155,372.921C365.033,389.244 358.45,405.073 350.488,420.215C345.176,430.263 339.039,439.853 332.142,448.886ZM436.748,157.809L436.748,157.758L63.252,157.758L63.252,157.809L55.601,157.809C44.142,181.934 37.304,207.993 35.442,234.635L63.252,234.635L63.252,265.365L35.442,265.365C37.347,292.715 44.384,318.621 55.601,342.191L63.252,342.191L63.252,342.242L436.748,342.242L436.748,342.191L444.399,342.191C455.616,318.621 462.653,292.715 464.558,265.365L436.748,265.365L436.748,234.635L464.558,234.635C462.695,207.993 455.857,181.934 444.399,157.809L436.748,157.809ZM129.845,127.079C134.967,110.756 141.549,94.927 149.512,79.785C154.826,69.738 160.962,60.148 167.858,51.114C129.787,66.902 97.023,93.268 73.455,127.079L129.845,127.079ZM234.635,37.255C214.046,43.524 193.61,62.453 176.647,94.259C171.058,104.833 166.251,115.803 162.265,127.079L234.635,127.079L234.635,37.255ZM350.488,79.785C358.078,94.044 364.685,109.901 370.155,127.079L426.545,127.079C402.979,93.267 370.213,66.901 332.142,51.114C338.841,59.841 344.987,69.491 350.488,79.785ZM337.735,127.079C333.749,115.802 328.942,104.833 323.353,94.259C306.39,62.453 285.954,43.554 265.365,37.255L265.365,127.079L337.735,127.079Z" style="fill:rgb(225,225,225);fill-rule:nonzero;"/>
        <g transform="matrix(6.96378,0,0,6.96378,-689.229,-1457.08)">
            <path d="M114.797,236.653C117.277,236.653 119.181,237.089 120.509,237.961C121.837,238.833 122.501,240.261 122.501,242.245C122.501,244.245 121.829,245.689 120.485,246.577C119.141,247.465 117.221,247.909 114.725,247.909L113.549,247.909L113.549,253.477L109.805,253.477L109.805,237.085C110.621,236.925 111.485,236.813 112.397,236.749C113.309,236.685 114.109,236.653 114.797,236.653ZM115.037,239.845C114.765,239.845 114.497,239.853 114.233,239.869C113.969,239.885 113.741,239.901 113.549,239.917L113.549,244.717L114.725,244.717C116.021,244.717 116.997,244.541 117.653,244.189C118.309,243.837 118.637,243.181 118.637,242.221C118.637,241.757 118.553,241.373 118.385,241.069C118.217,240.765 117.977,240.521 117.665,240.337C117.353,240.153 116.973,240.025 116.525,239.953C116.077,239.881 115.581,239.845 115.037,239.845Z" style="fill:rgb(225,225,225);fill-rule:nonzero;"/>
            <path d="M129.677,236.845C129.965,237.373 130.297,238.025 130.673,238.801C131.049,239.577 131.441,240.417 131.849,241.321C132.257,242.225 132.661,243.149 133.061,244.093C133.461,245.037 133.837,245.925 134.189,246.757C134.541,245.925 134.917,245.037 135.317,244.093C135.717,243.149 136.121,242.225 136.529,241.321C136.937,240.417 137.329,239.577 137.705,238.801C138.081,238.025 138.413,237.373 138.701,236.845L142.109,236.845C142.269,237.949 142.417,239.185 142.553,240.553C142.689,241.921 142.809,243.345 142.913,244.825C143.017,246.305 143.113,247.789 143.201,249.277C143.289,250.765 143.365,252.165 143.429,253.477L139.781,253.477C139.733,251.861 139.669,250.101 139.589,248.197C139.509,246.293 139.389,244.373 139.229,242.437C138.941,243.109 138.621,243.853 138.269,244.669C137.917,245.485 137.569,246.301 137.225,247.117C136.881,247.933 136.549,248.713 136.229,249.457C135.909,250.201 135.637,250.837 135.413,251.365L132.797,251.365C132.573,250.837 132.301,250.201 131.981,249.457C131.661,248.713 131.329,247.933 130.985,247.117C130.641,246.301 130.293,245.485 129.941,244.669C129.589,243.853 129.269,243.109 128.981,242.437C128.821,244.373 128.701,246.293 128.621,248.197C128.541,250.101 128.477,251.861 128.429,253.477L124.781,253.477C124.845,252.165 124.921,250.765 125.009,249.277C125.097,247.789 125.193,246.305 125.297,244.825C125.401,243.345 125.521,241.921 125.657,240.553C125.793,239.185 125.941,237.949 126.101,236.845L129.677,236.845Z" style="fill:rgb(225,225,225);fill-rule:nonzero;"/>
            <path d="M154.373,253.813C151.669,253.813 149.609,253.061 148.193,251.557C146.777,250.053 146.069,247.917 146.069,245.149C146.069,243.773 146.285,242.545 146.717,241.465C147.149,240.385 147.741,239.473 148.493,238.729C149.245,237.985 150.141,237.421 151.181,237.037C152.221,236.653 153.349,236.461 154.565,236.461C155.269,236.461 155.909,236.513 156.485,236.617C157.061,236.721 157.565,236.841 157.997,236.977C158.429,237.113 158.789,237.253 159.077,237.397C159.365,237.541 159.573,237.653 159.701,237.733L158.621,240.757C158.109,240.485 157.513,240.253 156.833,240.061C156.153,239.869 155.381,239.773 154.517,239.773C153.941,239.773 153.377,239.869 152.825,240.061C152.273,240.253 151.785,240.561 151.361,240.985C150.937,241.409 150.597,241.957 150.341,242.629C150.085,243.301 149.957,244.117 149.957,245.077C149.957,245.845 150.041,246.561 150.209,247.225C150.377,247.889 150.649,248.461 151.025,248.941C151.401,249.421 151.893,249.801 152.501,250.081C153.109,250.361 153.845,250.501 154.709,250.501C155.253,250.501 155.741,250.469 156.173,250.405C156.605,250.341 156.989,250.265 157.325,250.177C157.661,250.089 157.957,249.989 158.213,249.877C158.469,249.765 158.701,249.661 158.909,249.565L159.941,252.565C159.413,252.885 158.669,253.173 157.709,253.429C156.749,253.685 155.637,253.813 154.373,253.813Z" style="fill:rgb(225,225,225);fill-rule:nonzero;"/>
        </g>
    </g>
</svg>
